<?xml version="1.0" encoding="UTF-8"?>
<svg version="1.1" viewBox="0 0 6.35 6.35" xmlns="http://www.w3.org/2000/svg">
    <path fill="#ccc"
          d="m5.16 1.06h-4.23c-0.292 0-0.529 0.237-0.529 0.529v4.76l1.06-1.06h3.7c0.292 0 0.529-0.237 0.529-0.529v-3.18c0-0.292-0.237-0.529-0.529-0.529"/>
    <path fill="#d40000"
          d="m3.24 3.14h-0.397v-0.198h0.397m0 0.595h-0.397v-0.198h0.397m0.595-0.595h-0.279c-0.0446-0.0774-0.106-0.144-0.181-0.194l0.162-0.162-0.14-0.14-0.215 0.215c-0.0457-0.0109-0.0913-0.0169-0.141-0.0169-0.0496 0-0.0952 6e-3 -0.14 0.0169l-0.216-0.215-0.14 0.14 0.161 0.162c-0.0734 0.0506-0.135 0.117-0.18 0.194h-0.279v0.198h0.207c-5e-3 0.0327-9e-3 0.0655-9e-3 0.0992v0.0992h-0.198v0.198h0.198v0.0992c0 0.0337 4e-3 0.0665 9e-3 0.0992h-0.207v0.198h0.279c0.103 0.178 0.295 0.298 0.515 0.298 0.22 0 0.412-0.12 0.515-0.298h0.279v-0.198h-0.207c5e-3 -0.0327 9e-3 -0.0655 9e-3 -0.0992v-0.0992h0.198v-0.198h-0.198v-0.0992c0-0.0337-4e-3 -0.0665-9e-3 -0.0992h0.207z"/>
    <path fill="#666"
          d="m3.04 1.46a1.72 1.72 0 0 1 1.72 1.72c0 0.426-0.156 0.818-0.413 1.12l0.0714 0.0714h0.209l1.32 1.32-0.397 0.397-1.32-1.32v-0.209l-0.0714-0.0714c-0.302 0.257-0.693 0.413-1.12 0.413a1.72 1.72 0 0 1-1.72-1.72 1.72 1.72 0 0 1 1.72-1.72m0 0.529c-0.661 0-1.19 0.529-1.19 1.19s0.529 1.19 1.19 1.19c0.661 0 1.19-0.529 1.19-1.19s-0.529-1.19-1.19-1.19z"/>
</svg>
